<svg width="220" height="64" viewBox="0 0 220 64" fill="none" xmlns="http://www.w3.org/2000/svg">
  <rect width="220" height="64" rx="18" fill="url(#paint0_linear)"/>
  <rect x="10" y="10" width="44" height="44" rx="14" fill="#FFFFFF" fill-opacity="0.16"/>
  <rect x="16" y="16" width="32" height="32" rx="10" fill="#FFFFFF"/>
  <path d="M24 31.5L29 36.5L40 25.5" stroke="#17B6D3" stroke-width="3.6" stroke-linecap="round" stroke-linejoin="round"/>
  <path d="M67 24H85.6C90.6 24 94.4 27.8 94.4 32C94.4 36.2 90.6 40 85.6 40H67V24ZM76.2 31.4H84.3C85.9 31.4 86.9 31.7 86.9 32.1C86.9 32.5 85.9 32.8 84.3 32.8H76.2V31.4Z" fill="white"/>
  <path d="M98.6 24H105.9L111.6 33.5L117.4 24H124.7V40H117.8V34.4L114 40H109.2L105.5 34.4V40H98.6V24Z" fill="white"/>
  <path d="M129.1 24H147.8V29.2H136.4V30H146.7V34.3H136.4V40H129.1V24Z" fill="white"/>
  <path d="M151.4 24H169.8V28.8H158.7V29.6H168.7V33.8H158.7V35.1H170.3V40H151.4V24Z" fill="white"/>
  <path d="M174.3 24H186.3C192.2 24 196 27 196 32C196 37 192.2 40 186.3 40H174.3V24ZM181.6 29.6V34.4H185.5C187.1 34.4 188.5 33.6 188.5 32C188.5 30.4 187.1 29.6 185.5 29.6H181.6Z" fill="white"/>
  <path d="M201.1 24H208.4V40H201.1V24Z" fill="white"/>
  <defs>
    <linearGradient id="paint0_linear" x1="0" y1="0" x2="220" y2="64" gradientUnits="userSpaceOnUse">
      <stop stop-color="#123F68"/>
      <stop offset="1" stop-color="#17B6D3"/>
    </linearGradient>
  </defs>
</svg>
